[FRAME]
media_type=video
stream_index=0
key_frame=1
pkt_pts=0
pkt_pts_time=0.000000
pkt_dts=0
pkt_dts_time=0.000000
best_effort_timestamp=0
best_effort_timestamp_time=0.000000
pkt_duration=1
pkt_duration_time=0.033333
pkt_pos=1048576
pkt_size=3382800
width=3840
height=2160
pix_fmt=yuv422p10le
sample_aspect_ratio=1:1
pict_type=I
coded_picture_number=0
display_picture_number=0
interlaced_frame=0
top_field_first=0
repeat_pict=0
color_range=tv
color_space=bt709
color_primaries=bt709
color_transfer=bt709
chroma_location=unspecified
[/FRAME]
[FRAME]
media_type=video
stream_index=0
key_frame=1
pkt_pts=1
pkt_pts_time=0.033333
pkt_dts=1
pkt_dts_time=0.033333
best_effort_timestamp=1
best_effort_timestamp_time=0.033333
pkt_duration=1
pkt_duration_time=0.033333
pkt_pos=4431376
pkt_size=3382064
width=3840
height=2160
pix_fmt=yuv422p10le
sample_aspect_ratio=1:1
pict_type=I
coded_picture_number=0
display_picture_number=0
interlaced_frame=0
top_field_first=0
repeat_pict=0
color_range=tv
color_space=bt709
color_primaries=bt709
color_transfer=bt709
chroma_location=unspecified
[/FRAME]
[FRAME]
media_type=video
stream_index=0
key_frame=1
pkt_pts=2
pkt_pts_time=0.066667
pkt_dts=2
pkt_dts_time=0.066667
best_effort_timestamp=2
best_effort_timestamp_time=0.066667
pkt_duration=1
pkt_duration_time=0.033333
pkt_pos=7813440
pkt_size=3384048
width=3840
height=2160
pix_fmt=yuv422p10le
sample_aspect_ratio=1:1
pict_type=I
coded_picture_number=0
display_picture_number=0
interlaced_frame=0
top_field_first=0
repeat_pict=0
color_range=tv
color_space=bt709
color_primaries=bt709
color_transfer=bt709
chroma_location=unspecified
[/FRAME]
[FRAME]
media_type=video
stream_index=0
key_frame=1
pkt_pts=3
pkt_pts_time=0.100000
pkt_dts=3
pkt_dts_time=0.100000
best_effort_timestamp=3
best_effort_timestamp_time=0.100000
pkt_duration=1
pkt_duration_time=0.033333
pkt_pos=11197488
pkt_size=3381440
width=3840
height=2160
pix_fmt=yuv422p10le
sample_aspect_ratio=1:1
pict_type=I
coded_picture_number=0
display_picture_number=0
interlaced_frame=0
top_field_first=0
repeat_pict=0
color_range=tv
color_space=bt709
color_primaries=bt709
color_transfer=bt709
chroma_location=unspecified
[/FRAME]
[FRAME]
media_type=video
stream_index=0
key_frame=1
pkt_pts=4
pkt_pts_time=0.133333
pkt_dts=4
pkt_dts_time=0.133333
best_effort_timestamp=4
best_effort_timestamp_time=0.133333
pkt_duration=1
pkt_duration_time=0.033333
pkt_pos=14578928
pkt_size=3382832
width=3840
height=2160
pix_fmt=yuv422p10le
sample_aspect_ratio=1:1
pict_type=I
coded_picture_number=0
display_picture_number=0
interlaced_frame=0
top_field_first=0
repeat_pict=0
color_range=tv
color_space=bt709
color_primaries=bt709
color_transfer=bt709
chroma_location=unspecified
[/FRAME]
[FRAME]
media_type=video
stream_index=0
key_frame=1
pkt_pts=5
pkt_pts_time=0.166667
pkt_dts=5
pkt_dts_time=0.166667
best_effort_timestamp=5
best_effort_timestamp_time=0.166667
pkt_duration=1
pkt_duration_time=0.033333
pkt_pos=17961760
pkt_size=3382416
width=3840
height=2160
pix_fmt=yuv422p10le
sample_aspect_ratio=1:1
pict_type=I
coded_picture_number=0
display_picture_number=0
interlaced_frame=0
top_field_first=0
repeat_pict=0
color_range=tv
color_space=bt709
color_primaries=bt709
color_transfer=bt709
chroma_location=unspecified
[/FRAME]
[FRAME]
media_type=video
stream_index=0
key_frame=1
pkt_pts=6
pkt_pts_time=0.200000
pkt_dts=6
pkt_dts_time=0.200000
best_effort_timestamp=6
best_effort_timestamp_time=0.200000
pkt_duration=1
pkt_duration_time=0.033333
pkt_pos=21344176
pkt_size=3382816
width=3840
height=2160
pix_fmt=yuv422p10le
sample_aspect_ratio=1:1
pict_type=I
coded_picture_number=0
display_picture_number=0
interlaced_frame=0
top_field_first=0
repeat_pict=0
color_range=tv
color_space=bt709
color_primaries=bt709
color_transfer=bt709
chroma_location=unspecified
[/FRAME]
[FRAME]
media_type=video
stream_index=0
key_frame=1
pkt_pts=7
pkt_pts_time=0.233333
pkt_dts=7
pkt_dts_time=0.233333
best_effort_timestamp=7
best_effort_timestamp_time=0.233333
pkt_duration=1
pkt_duration_time=0.033333
pkt_pos=24726992
pkt_size=3384896
width=3840
height=2160
pix_fmt=yuv422p10le
sample_aspect_ratio=1:1
pict_type=I
coded_picture_number=0
display_picture_number=0
interlaced_frame=0
top_field_first=0
repeat_pict=0
color_range=tv
color_space=bt709
color_primaries=bt709
color_transfer=bt709
chroma_location=unspecified
[/FRAME]
[FRAME]
media_type=video
stream_index=0
key_frame=1
pkt_pts=8
pkt_pts_time=0.266667
pkt_dts=8
pkt_dts_time=0.266667
best_effort_timestamp=8
best_effort_timestamp_time=0.266667
pkt_duration=1
pkt_duration_time=0.033333
pkt_pos=28111888
pkt_size=3383696
width=3840
height=2160
pix_fmt=yuv422p10le
sample_aspect_ratio=1:1
pict_type=I
coded_picture_number=0
display_picture_number=0
interlaced_frame=0
top_field_first=0
repeat_pict=0
color_range=tv
color_space=bt709
color_primaries=bt709
color_transfer=bt709
chroma_location=unspecified
[/FRAME]
[FRAME]
media_type=video
stream_index=0
key_frame=1
pkt_pts=9
pkt_pts_time=0.300000
pkt_dts=9
pkt_dts_time=0.300000
best_effort_timestamp=9
best_effort_timestamp_time=0.300000
pkt_duration=1
pkt_duration_time=0.033333
pkt_pos=31495584
pkt_size=3383648
width=3840
height=2160
pix_fmt=yuv422p10le
sample_aspect_ratio=1:1
pict_type=I
coded_picture_number=0
display_picture_number=0
interlaced_frame=0
top_field_first=0
repeat_pict=0
color_range=tv
color_space=bt709
color_primaries=bt709
color_transfer=bt709
chroma_location=unspecified
[/FRAME]
[FRAME]
media_type=video
stream_index=0
key_frame=1
pkt_pts=10
pkt_pts_time=0.333333
pkt_dts=10
pkt_dts_time=0.333333
best_effort_timestamp=10
best_effort_timestamp_time=0.333333
pkt_duration=1
pkt_duration_time=0.033333
pkt_pos=34879232
pkt_size=3382928
width=3840
height=2160
pix_fmt=yuv422p10le
sample_aspect_ratio=1:1
pict_type=I
coded_picture_number=0
display_picture_number=0
interlaced_frame=0
top_field_first=0
repeat_pict=0
color_range=tv
color_space=bt709
color_primaries=bt709
color_transfer=bt709
chroma_location=unspecified
[/FRAME]
[FRAME]
media_type=video
stream_index=0
key_frame=1
pkt_pts=11
pkt_pts_time=0.366667
pkt_dts=11
pkt_dts_time=0.366667
best_effort_timestamp=11
best_effort_timestamp_time=0.366667
pkt_duration=1
pkt_duration_time=0.033333
pkt_pos=38262160
pkt_size=3383840
width=3840
height=2160
pix_fmt=yuv422p10le
sample_aspect_ratio=1:1
pict_type=I
coded_picture_number=0
display_picture_number=0
interlaced_frame=0
top_field_first=0
repeat_pict=0
color_range=tv
color_space=bt709
color_primaries=bt709
color_transfer=bt709
chroma_location=unspecified
[/FRAME]
[FRAME]
media_type=video
stream_index=0
key_frame=1
pkt_pts=12
pkt_pts_time=0.400000
pkt_dts=12
pkt_dts_time=0.400000
best_effort_timestamp=12
best_effort_timestamp_time=0.400000
pkt_duration=1
pkt_duration_time=0.033333
pkt_pos=41646000
pkt_size=3384736
width=3840
height=2160
pix_fmt=yuv422p10le
sample_aspect_ratio=1:1
pict_type=I
coded_picture_number=0
display_picture_number=0
interlaced_frame=0
top_field_first=0
repeat_pict=0
color_range=tv
color_space=bt709
color_primaries=bt709
color_transfer=bt709
chroma_location=unspecified
[/FRAME]
[FRAME]
media_type=video
stream_index=0
key_frame=1
pkt_pts=13
pkt_pts_time=0.433333
pkt_dts=13
pkt_dts_time=0.433333
best_effort_timestamp=13
best_effort_timestamp_time=0.433333
pkt_duration=1
pkt_duration_time=0.033333
pkt_pos=45030736
pkt_size=3386400
width=3840
height=2160
pix_fmt=yuv422p10le
sample_aspect_ratio=1:1
pict_type=I
coded_picture_number=0
display_picture_number=0
interlaced_frame=0
top_field_first=0
repeat_pict=0
color_range=tv
color_space=bt709
color_primaries=bt709
color_transfer=bt709
chroma_location=unspecified
[/FRAME]
[FRAME]
media_type=video
stream_index=0
key_frame=1
pkt_pts=14
pkt_pts_time=0.466667
pkt_dts=14
pkt_dts_time=0.466667
best_effort_timestamp=14
best_effort_timestamp_time=0.466667
pkt_duration=1
pkt_duration_time=0.033333
pkt_pos=48417136
pkt_size=3387680
width=3840
height=2160
pix_fmt=yuv422p10le
sample_aspect_ratio=1:1
pict_type=I
coded_picture_number=0
display_picture_number=0
interlaced_frame=0
top_field_first=0
repeat_pict=0
color_range=tv
color_space=bt709
color_primaries=bt709
color_transfer=bt709
chroma_location=unspecified
[/FRAME]
[FRAME]
media_type=video
stream_index=0
key_frame=1
pkt_pts=15
pkt_pts_time=0.500000
pkt_dts=15
pkt_dts_time=0.500000
best_effort_timestamp=15
best_effort_timestamp_time=0.500000
pkt_duration=1
pkt_duration_time=0.033333
pkt_pos=51804816
pkt_size=3388192
width=3840
height=2160
pix_fmt=yuv422p10le
sample_aspect_ratio=1:1
pict_type=I
coded_picture_number=0
display_picture_number=0
interlaced_frame=0
top_field_first=0
repeat_pict=0
color_range=tv
color_space=bt709
color_primaries=bt709
color_transfer=bt709
chroma_location=unspecified
[/FRAME]
[FRAME]
media_type=video
stream_index=0
key_frame=1
pkt_pts=16
pkt_pts_time=0.533333
pkt_dts=16
pkt_dts_time=0.533333
best_effort_timestamp=16
best_effort_timestamp_time=0.533333
pkt_duration=1
pkt_duration_time=0.033333
pkt_pos=55193008
pkt_size=3388016
width=3840
height=2160
pix_fmt=yuv422p10le
sample_aspect_ratio=1:1
pict_type=I
coded_picture_number=0
display_picture_number=0
interlaced_frame=0
top_field_first=0
repeat_pict=0
color_range=tv
color_space=bt709
color_primaries=bt709
color_transfer=bt709
chroma_location=unspecified
[/FRAME]
[FRAME]
media_type=video
stream_index=0
key_frame=1
pkt_pts=17
pkt_pts_time=0.566667
pkt_dts=17
pkt_dts_time=0.566667
best_effort_timestamp=17
best_effort_timestamp_time=0.566667
pkt_duration=1
pkt_duration_time=0.033333
pkt_pos=58581024
pkt_size=3387040
width=3840
height=2160
pix_fmt=yuv422p10le
sample_aspect_ratio=1:1
pict_type=I
coded_picture_number=0
display_picture_number=0
interlaced_frame=0
top_field_first=0
repeat_pict=0
color_range=tv
color_space=bt709
color_primaries=bt709
color_transfer=bt709
chroma_location=unspecified
[/FRAME]
[FRAME]
media_type=video
stream_index=0
key_frame=1
pkt_pts=18
pkt_pts_time=0.600000
pkt_dts=18
pkt_dts_time=0.600000
best_effort_timestamp=18
best_effort_timestamp_time=0.600000
pkt_duration=1
pkt_duration_time=0.033333
pkt_pos=61968064
pkt_size=3386000
width=3840
height=2160
pix_fmt=yuv422p10le
sample_aspect_ratio=1:1
pict_type=I
coded_picture_number=0
display_picture_number=0
interlaced_frame=0
top_field_first=0
repeat_pict=0
color_range=tv
color_space=bt709
color_primaries=bt709
color_transfer=bt709
chroma_location=unspecified
[/FRAME]
[FRAME]
media_type=video
stream_index=0
key_frame=1
pkt_pts=19
pkt_pts_time=0.633333
pkt_dts=19
pkt_dts_time=0.633333
best_effort_timestamp=19
best_effort_timestamp_time=0.633333
pkt_duration=1
pkt_duration_time=0.033333
pkt_pos=65354064
pkt_size=3385648
width=3840
height=2160
pix_fmt=yuv422p10le
sample_aspect_ratio=1:1
pict_type=I
coded_picture_number=0
display_picture_number=0
interlaced_frame=0
top_field_first=0
repeat_pict=0
color_range=tv
color_space=bt709
color_primaries=bt709
color_transfer=bt709
chroma_location=unspecified
[/FRAME]
[FRAME]
media_type=video
stream_index=0
key_frame=1
pkt_pts=20
pkt_pts_time=0.666667
pkt_dts=20
pkt_dts_time=0.666667
best_effort_timestamp=20
best_effort_timestamp_time=0.666667
pkt_duration=1
pkt_duration_time=0.033333
pkt_pos=68739712
pkt_size=3385152
width=3840
height=2160
pix_fmt=yuv422p10le
sample_aspect_ratio=1:1
pict_type=I
coded_picture_number=0
display_picture_number=0
interlaced_frame=0
top_field_first=0
repeat_pict=0
color_range=tv
color_space=bt709
color_primaries=bt709
color_transfer=bt709
chroma_location=unspecified
[/FRAME]
[FRAME]
media_type=video
stream_index=0
key_frame=1
pkt_pts=21
pkt_pts_time=0.700000
pkt_dts=21
pkt_dts_time=0.700000
best_effort_timestamp=21
best_effort_timestamp_time=0.700000
pkt_duration=1
pkt_duration_time=0.033333
pkt_pos=72124864
pkt_size=3384832
width=3840
height=2160
pix_fmt=yuv422p10le
sample_aspect_ratio=1:1
pict_type=I
coded_picture_number=0
display_picture_number=0
interlaced_frame=0
top_field_first=0
repeat_pict=0
color_range=tv
color_space=bt709
color_primaries=bt709
color_transfer=bt709
chroma_location=unspecified
[/FRAME]
[FRAME]
media_type=video
stream_index=0
key_frame=1
pkt_pts=22
pkt_pts_time=0.733333
pkt_dts=22
pkt_dts_time=0.733333
best_effort_timestamp=22
best_effort_timestamp_time=0.733333
pkt_duration=1
pkt_duration_time=0.033333
pkt_pos=75509696
pkt_size=3385472
width=3840
height=2160
pix_fmt=yuv422p10le
sample_aspect_ratio=1:1
pict_type=I
coded_picture_number=0
display_picture_number=0
interlaced_frame=0
top_field_first=0
repeat_pict=0
color_range=tv
color_space=bt709
color_primaries=bt709
color_transfer=bt709
chroma_location=unspecified
[/FRAME]
[FRAME]
media_type=video
stream_index=0
key_frame=1
pkt_pts=23
pkt_pts_time=0.766667
pkt_dts=23
pkt_dts_time=0.766667
best_effort_timestamp=23
best_effort_timestamp_time=0.766667
pkt_duration=1
pkt_duration_time=0.033333
pkt_pos=78895168
pkt_size=3387632
width=3840
height=2160
pix_fmt=yuv422p10le
sample_aspect_ratio=1:1
pict_type=I
coded_picture_number=0
display_picture_number=0
interlaced_frame=0
top_field_first=0
repeat_pict=0
color_range=tv
color_space=bt709
color_primaries=bt709
color_transfer=bt709
chroma_location=unspecified
[/FRAME]
[FRAME]
media_type=video
stream_index=0
key_frame=1
pkt_pts=24
pkt_pts_time=0.800000
pkt_dts=24
pkt_dts_time=0.800000
best_effort_timestamp=24
best_effort_timestamp_time=0.800000
pkt_duration=1
pkt_duration_time=0.033333
pkt_pos=82282800
pkt_size=3391664
width=3840
height=2160
pix_fmt=yuv422p10le
sample_aspect_ratio=1:1
pict_type=I
coded_picture_number=0
display_picture_number=0
interlaced_frame=0
top_field_first=0
repeat_pict=0
color_range=tv
color_space=bt709
color_primaries=bt709
color_transfer=bt709
chroma_location=unspecified
[/FRAME]
[FRAME]
media_type=video
stream_index=0
key_frame=1
pkt_pts=25
pkt_pts_time=0.833333
pkt_dts=25
pkt_dts_time=0.833333
best_effort_timestamp=25
best_effort_timestamp_time=0.833333
pkt_duration=1
pkt_duration_time=0.033333
pkt_pos=85674464
pkt_size=3401008
width=3840
height=2160
pix_fmt=yuv422p10le
sample_aspect_ratio=1:1
pict_type=I
coded_picture_number=0
display_picture_number=0
interlaced_frame=0
top_field_first=0
repeat_pict=0
color_range=tv
color_space=bt709
color_primaries=bt709
color_transfer=bt709
chroma_location=unspecified
[/FRAME]
[FRAME]
media_type=video
stream_index=0
key_frame=1
pkt_pts=26
pkt_pts_time=0.866667
pkt_dts=26
pkt_dts_time=0.866667
best_effort_timestamp=26
best_effort_timestamp_time=0.866667
pkt_duration=1
pkt_duration_time=0.033333
pkt_pos=89075472
pkt_size=3408208
width=3840
height=2160
pix_fmt=yuv422p10le
sample_aspect_ratio=1:1
pict_type=I
coded_picture_number=0
display_picture_number=0
interlaced_frame=0
top_field_first=0
repeat_pict=0
color_range=tv
color_space=bt709
color_primaries=bt709
color_transfer=bt709
chroma_location=unspecified
[/FRAME]
[FRAME]
media_type=video
stream_index=0
key_frame=1
pkt_pts=27
pkt_pts_time=0.900000
pkt_dts=27
pkt_dts_time=0.900000
best_effort_timestamp=27
best_effort_timestamp_time=0.900000
pkt_duration=1
pkt_duration_time=0.033333
pkt_pos=92483680
pkt_size=3411872
width=3840
height=2160
pix_fmt=yuv422p10le
sample_aspect_ratio=1:1
pict_type=I
coded_picture_number=0
display_picture_number=0
interlaced_frame=0
top_field_first=0
repeat_pict=0
color_range=tv
color_space=bt709
color_primaries=bt709
color_transfer=bt709
chroma_location=unspecified
[/FRAME]
[FRAME]
media_type=video
stream_index=0
key_frame=1
pkt_pts=28
pkt_pts_time=0.933333
pkt_dts=28
pkt_dts_time=0.933333
best_effort_timestamp=28
best_effort_timestamp_time=0.933333
pkt_duration=1
pkt_duration_time=0.033333
pkt_pos=95895552
pkt_size=3416912
width=3840
height=2160
pix_fmt=yuv422p10le
sample_aspect_ratio=1:1
pict_type=I
coded_picture_number=0
display_picture_number=0
interlaced_frame=0
top_field_first=0
repeat_pict=0
color_range=tv
color_space=bt709
color_primaries=bt709
color_transfer=bt709
chroma_location=unspecified
[/FRAME]
[FRAME]
media_type=video
stream_index=0
key_frame=1
pkt_pts=29
pkt_pts_time=0.966667
pkt_dts=29
pkt_dts_time=0.966667
best_effort_timestamp=29
best_effort_timestamp_time=0.966667
pkt_duration=1
pkt_duration_time=0.033333
pkt_pos=99312464
pkt_size=3419680
width=3840
height=2160
pix_fmt=yuv422p10le
sample_aspect_ratio=1:1
pict_type=I
coded_picture_number=0
display_picture_number=0
interlaced_frame=0
top_field_first=0
repeat_pict=0
color_range=tv
color_space=bt709
color_primaries=bt709
color_transfer=bt709
chroma_location=unspecified
[/FRAME]
[FRAME]
media_type=video
stream_index=0
key_frame=1
pkt_pts=30
pkt_pts_time=1.000000
pkt_dts=30
pkt_dts_time=1.000000
best_effort_timestamp=30
best_effort_timestamp_time=1.000000
pkt_duration=1
pkt_duration_time=0.033333
pkt_pos=102732144
pkt_size=3423888
width=3840
height=2160
pix_fmt=yuv422p10le
sample_aspect_ratio=1:1
pict_type=I
coded_picture_number=0
display_picture_number=0
interlaced_frame=0
top_field_first=0
repeat_pict=0
color_range=tv
color_space=bt709
color_primaries=bt709
color_transfer=bt709
chroma_location=unspecified
[/FRAME]
[FRAME]
media_type=video
stream_index=0
key_frame=1
pkt_pts=31
pkt_pts_time=1.033333
pkt_dts=31
pkt_dts_time=1.033333
best_effort_timestamp=31
best_effort_timestamp_time=1.033333
pkt_duration=1
pkt_duration_time=0.033333
pkt_pos=106156032
pkt_size=3424544
width=3840
height=2160
pix_fmt=yuv422p10le
sample_aspect_ratio=1:1
pict_type=I
coded_picture_number=0
display_picture_number=0
interlaced_frame=0
top_field_first=0
repeat_pict=0
color_range=tv
color_space=bt709
color_primaries=bt709
color_transfer=bt709
chroma_location=unspecified
[/FRAME]
[FRAME]
media_type=video
stream_index=0
key_frame=1
pkt_pts=32
pkt_pts_time=1.066667
pkt_dts=32
pkt_dts_time=1.066667
best_effort_timestamp=32
best_effort_timestamp_time=1.066667
pkt_duration=1
pkt_duration_time=0.033333
pkt_pos=109580576
pkt_size=3423456
width=3840
height=2160
pix_fmt=yuv422p10le
sample_aspect_ratio=1:1
pict_type=I
coded_picture_number=0
display_picture_number=0
interlaced_frame=0
top_field_first=0
repeat_pict=0
color_range=tv
color_space=bt709
color_primaries=bt709
color_transfer=bt709
chroma_location=unspecified
[/FRAME]
[FRAME]
media_type=video
stream_index=0
key_frame=1
pkt_pts=33
pkt_pts_time=1.100000
pkt_dts=33
pkt_dts_time=1.100000
best_effort_timestamp=33
best_effort_timestamp_time=1.100000
pkt_duration=1
pkt_duration_time=0.033333
pkt_pos=113004032
pkt_size=3421376
width=3840
height=2160
pix_fmt=yuv422p10le
sample_aspect_ratio=1:1
pict_type=I
coded_picture_number=0
display_picture_number=0
interlaced_frame=0
top_field_first=0
repeat_pict=0
color_range=tv
color_space=bt709
color_primaries=bt709
color_transfer=bt709
chroma_location=unspecified
[/FRAME]
[FRAME]
media_type=video
stream_index=0
key_frame=1
pkt_pts=34
pkt_pts_time=1.133333
pkt_dts=34
pkt_dts_time=1.133333
best_effort_timestamp=34
best_effort_timestamp_time=1.133333
pkt_duration=1
pkt_duration_time=0.033333
pkt_pos=116425408
pkt_size=3418912
width=3840
height=2160
pix_fmt=yuv422p10le
sample_aspect_ratio=1:1
pict_type=I
coded_picture_number=0
display_picture_number=0
interlaced_frame=0
top_field_first=0
repeat_pict=0
color_range=tv
color_space=bt709
color_primaries=bt709
color_transfer=bt709
chroma_location=unspecified
[/FRAME]
[FRAME]
media_type=video
stream_index=0
key_frame=1
pkt_pts=35
pkt_pts_time=1.166667
pkt_dts=35
pkt_dts_time=1.166667
best_effort_timestamp=35
best_effort_timestamp_time=1.166667
pkt_duration=1
pkt_duration_time=0.033333
pkt_pos=119844320
pkt_size=3420272
width=3840
height=2160
pix_fmt=yuv422p10le
sample_aspect_ratio=1:1
pict_type=I
coded_picture_number=0
display_picture_number=0
interlaced_frame=0
top_field_first=0
repeat_pict=0
color_range=tv
color_space=bt709
color_primaries=bt709
color_transfer=bt709
chroma_location=unspecified
[/FRAME]
[FRAME]
media_type=video
stream_index=0
key_frame=1
pkt_pts=36
pkt_pts_time=1.200000
pkt_dts=36
pkt_dts_time=1.200000
best_effort_timestamp=36
best_effort_timestamp_time=1.200000
pkt_duration=1
pkt_duration_time=0.033333
pkt_pos=123264592
pkt_size=3420240
width=3840
height=2160
pix_fmt=yuv422p10le
sample_aspect_ratio=1:1
pict_type=I
coded_picture_number=0
display_picture_number=0
interlaced_frame=0
top_field_first=0
repeat_pict=0
color_range=tv
color_space=bt709
color_primaries=bt709
color_transfer=bt709
chroma_location=unspecified
[/FRAME]
[FRAME]
media_type=video
stream_index=0
key_frame=1
pkt_pts=37
pkt_pts_time=1.233333
pkt_dts=37
pkt_dts_time=1.233333
best_effort_timestamp=37
best_effort_timestamp_time=1.233333
pkt_duration=1
pkt_duration_time=0.033333
pkt_pos=126684832
pkt_size=3421904
width=3840
height=2160
pix_fmt=yuv422p10le
sample_aspect_ratio=1:1
pict_type=I
coded_picture_number=0
display_picture_number=0
interlaced_frame=0
top_field_first=0
repeat_pict=0
color_range=tv
color_space=bt709
color_primaries=bt709
color_transfer=bt709
chroma_location=unspecified
[/FRAME]
[FRAME]
media_type=video
stream_index=0
key_frame=1
pkt_pts=38
pkt_pts_time=1.266667
pkt_dts=38
pkt_dts_time=1.266667
best_effort_timestamp=38
best_effort_timestamp_time=1.266667
pkt_duration=1
pkt_duration_time=0.033333
pkt_pos=130106736
pkt_size=3425008
width=3840
height=2160
pix_fmt=yuv422p10le
sample_aspect_ratio=1:1
pict_type=I
coded_picture_number=0
display_picture_number=0
interlaced_frame=0
top_field_first=0
repeat_pict=0
color_range=tv
color_space=bt709
color_primaries=bt709
color_transfer=bt709
chroma_location=unspecified
[/FRAME]
[FRAME]
media_type=video
stream_index=0
key_frame=1
pkt_pts=39
pkt_pts_time=1.300000
pkt_dts=39
pkt_dts_time=1.300000
best_effort_timestamp=39
best_effort_timestamp_time=1.300000
pkt_duration=1
pkt_duration_time=0.033333
pkt_pos=133531744
pkt_size=3426848
width=3840
height=2160
pix_fmt=yuv422p10le
sample_aspect_ratio=1:1
pict_type=I
coded_picture_number=0
display_picture_number=0
interlaced_frame=0
top_field_first=0
repeat_pict=0
color_range=tv
color_space=bt709
color_primaries=bt709
color_transfer=bt709
chroma_location=unspecified
[/FRAME]
[FRAME]
media_type=video
stream_index=0
key_frame=1
pkt_pts=40
pkt_pts_time=1.333333
pkt_dts=40
pkt_dts_time=1.333333
best_effort_timestamp=40
best_effort_timestamp_time=1.333333
pkt_duration=1
pkt_duration_time=0.033333
pkt_pos=136958592
pkt_size=3428720
width=3840
height=2160
pix_fmt=yuv422p10le
sample_aspect_ratio=1:1
pict_type=I
coded_picture_number=0
display_picture_number=0
interlaced_frame=0
top_field_first=0
repeat_pict=0
color_range=tv
color_space=bt709
color_primaries=bt709
color_transfer=bt709
chroma_location=unspecified
[/FRAME]
[FRAME]
media_type=video
stream_index=0
key_frame=1
pkt_pts=41
pkt_pts_time=1.366667
pkt_dts=41
pkt_dts_time=1.366667
best_effort_timestamp=41
best_effort_timestamp_time=1.366667
pkt_duration=1
pkt_duration_time=0.033333
pkt_pos=140387312
pkt_size=3429648
width=3840
height=2160
pix_fmt=yuv422p10le
sample_aspect_ratio=1:1
pict_type=I
coded_picture_number=0
display_picture_number=0
interlaced_frame=0
top_field_first=0
repeat_pict=0
color_range=tv
color_space=bt709
color_primaries=bt709
color_transfer=bt709
chroma_location=unspecified
[/FRAME]
[FRAME]
media_type=video
stream_index=0
key_frame=1
pkt_pts=42
pkt_pts_time=1.400000
pkt_dts=42
pkt_dts_time=1.400000
best_effort_timestamp=42
best_effort_timestamp_time=1.400000
pkt_duration=1
pkt_duration_time=0.033333
pkt_pos=143816960
pkt_size=3432048
width=3840
height=2160
pix_fmt=yuv422p10le
sample_aspect_ratio=1:1
pict_type=I
coded_picture_number=0
display_picture_number=0
interlaced_frame=0
top_field_first=0
repeat_pict=0
color_range=tv
color_space=bt709
color_primaries=bt709
color_transfer=bt709
chroma_location=unspecified
[/FRAME]
[FRAME]
media_type=video
stream_index=0
key_frame=1
pkt_pts=43
pkt_pts_time=1.433333
pkt_dts=43
pkt_dts_time=1.433333
best_effort_timestamp=43
best_effort_timestamp_time=1.433333
pkt_duration=1
pkt_duration_time=0.033333
pkt_pos=147249008
pkt_size=3435312
width=3840
height=2160
pix_fmt=yuv422p10le
sample_aspect_ratio=1:1
pict_type=I
coded_picture_number=0
display_picture_number=0
interlaced_frame=0
top_field_first=0
repeat_pict=0
color_range=tv
color_space=bt709
color_primaries=bt709
color_transfer=bt709
chroma_location=unspecified
[/FRAME]
[FRAME]
media_type=video
stream_index=0
key_frame=1
pkt_pts=44
pkt_pts_time=1.466667
pkt_dts=44
pkt_dts_time=1.466667
best_effort_timestamp=44
best_effort_timestamp_time=1.466667
pkt_duration=1
pkt_duration_time=0.033333
pkt_pos=150684320
pkt_size=3433424
width=3840
height=2160
pix_fmt=yuv422p10le
sample_aspect_ratio=1:1
pict_type=I
coded_picture_number=0
display_picture_number=0
interlaced_frame=0
top_field_first=0
repeat_pict=0
color_range=tv
color_space=bt709
color_primaries=bt709
color_transfer=bt709
chroma_location=unspecified
[/FRAME]
[FRAME]
media_type=video
stream_index=0
key_frame=1
pkt_pts=45
pkt_pts_time=1.500000
pkt_dts=45
pkt_dts_time=1.500000
best_effort_timestamp=45
best_effort_timestamp_time=1.500000
pkt_duration=1
pkt_duration_time=0.033333
pkt_pos=154117744
pkt_size=3441120
width=3840
height=2160
pix_fmt=yuv422p10le
sample_aspect_ratio=1:1
pict_type=I
coded_picture_number=0
display_picture_number=0
interlaced_frame=0
top_field_first=0
repeat_pict=0
color_range=tv
color_space=bt709
color_primaries=bt709
color_transfer=bt709
chroma_location=unspecified
[/FRAME]
[FRAME]
media_type=video
stream_index=0
key_frame=1
pkt_pts=46
pkt_pts_time=1.533333
pkt_dts=46
pkt_dts_time=1.533333
best_effort_timestamp=46
best_effort_timestamp_time=1.533333
pkt_duration=1
pkt_duration_time=0.033333
pkt_pos=157558864
pkt_size=3448464
width=3840
height=2160
pix_fmt=yuv422p10le
sample_aspect_ratio=1:1
pict_type=I
coded_picture_number=0
display_picture_number=0
interlaced_frame=0
top_field_first=0
repeat_pict=0
color_range=tv
color_space=bt709
color_primaries=bt709
color_transfer=bt709
chroma_location=unspecified
[/FRAME]
[FRAME]
media_type=video
stream_index=0
key_frame=1
pkt_pts=47
pkt_pts_time=1.566667
pkt_dts=47
pkt_dts_time=1.566667
best_effort_timestamp=47
best_effort_timestamp_time=1.566667
pkt_duration=1
pkt_duration_time=0.033333
pkt_pos=161007328
pkt_size=3455904
width=3840
height=2160
pix_fmt=yuv422p10le
sample_aspect_ratio=1:1
pict_type=I
coded_picture_number=0
display_picture_number=0
interlaced_frame=0
top_field_first=0
repeat_pict=0
color_range=tv
color_space=bt709
color_primaries=bt709
color_transfer=bt709
chroma_location=unspecified
[/FRAME]
